HIERARCHY
ROOT pelvis
{
  OFFSET 0 100 0
  CHANNELS 6 Xposition Yposition Zposition Zrotation Xrotation Yrotation
  JOINT pelvis_right_femur
  {
    OFFSET -10.78128 -3.44521 -0.5502486
    CHANNELS 3 Zrotation Xrotation Yrotation
    JOINT right_femur_tibia
    {
      OFFSET -0.8047443 -44.0398 -0.1307829
      CHANNELS 3 Zrotation Xrotation Yrotation
      JOINT right_tibia_foot
      {
        OFFSET 3.006224 -47.83518 -5
        CHANNELS 3 Zrotation Xrotation Yrotation
        End Site
        {
          OFFSET 0 -5 15
        }
      }
    }
  }
  JOINT pelvis_left_femur
  {
    OFFSET 10.78128 -3.44521 -0.5502486
    CHANNELS 3 Zrotation Xrotation Yrotation
    JOINT left_femur_tibia
    {
      OFFSET 0.8047443 -44.0398 -0.1307829
      CHANNELS 3 Zrotation Xrotation Yrotation
      JOINT left_tibia_foot
      {
        OFFSET -4.370144 -48.10324 -4.275266
        CHANNELS 3 Zrotation Xrotation Yrotation
        End Site
        {
          OFFSET 0 -5 15
        }
      }
    }
  }
  JOINT pelvis_spine1
  {
    OFFSET 0 6.468898 -3.129235
    CHANNELS 3 Zrotation Xrotation Yrotation
    JOINT spine1
    {
      OFFSET 0 23.15396 4.99043
      CHANNELS 3 Zrotation Xrotation Yrotation
      JOINT spine2
      {
        OFFSET 0 20.79997 -5.064912
        CHANNELS 3 Zrotation Xrotation Yrotation
        JOINT neck
        {
          OFFSET 0 14.38658 9.616178
          CHANNELS 3 Zrotation Xrotation Yrotation
          End Site
          {
            OFFSET 0 20 0
          }
        }
      }
      JOINT right_manubrium
      {
        OFFSET -5.722621 16.35077 3.967754
        CHANNELS 3 Zrotation Xrotation Yrotation
        JOINT right_clavicle
        {
          OFFSET -13.16364 1.694482 -4.693211
          CHANNELS 3 Zrotation Xrotation Yrotation
          JOINT right_humerus
          {
            OFFSET -28.5034 -0.3100689 -2.792744
            CHANNELS 3 Zrotation Xrotation Yrotation
            JOINT right_radius
            {
              OFFSET -25.15693 0.02248979 -1.271978
              CHANNELS 3 Zrotation Xrotation Yrotation
              End Site
              {
                OFFSET -15 0 0
              }
            }
          }
        }
      }
      JOINT left_manubrium
      {
        OFFSET 5.722621 16.35077 3.967754
        CHANNELS 3 Zrotation Xrotation Yrotation
        JOINT left_clavicle
        {
          OFFSET 13.16364 1.694482 -4.693211
          CHANNELS 3 Zrotation Xrotation Yrotation
          JOINT left_humerus
          {
            OFFSET 29.39168 -1.063119 -2.237045
            CHANNELS 3 Zrotation Xrotation Yrotation
            JOINT left_radius
            {
              OFFSET 24.59957 -0.9528479 0.9047498
              CHANNELS 3 Zrotation Xrotation Yrotation
              End Site
              {
                OFFSET 15 -0 -0
              }
            }
          }
        }
      }
    }
  }
}
MOTION
Frames: 19
Frame Time: 0.0416666666667
0 103.5113 0 1.323167 -1.433442 0.1425155 2.617711 -16.23408 7.309222 -0 36.18916 -0 -5.977188 -16.11838 -3.133877 -7.164303 12.21057 -23.24538 -0 4.423661 -0 6.318394 -18.15111 25.12909 -1.480281 -2.736294 5.178712 2.380885 10.05304 -7.798501 1.347541 21.67349 5.54511 2.163962 -24.79404 8.65696 4.604224 -20.65603 12.01651 85.39102 31.31913 -17.32775 -0 0 18.55786 -11.05919 8.534764 4.225695 6.883588 -20.98526 0.8194025 -94.78116 21.3541 23.6814 0 0 -7.060201 12.71623 18.58446 -3.987067
0.173915 103.3709 1.593503 0.3584837 -0.5924295 0.142846 3.67531 -20.05692 7.384424 -0 36.66621 -0 -6.493504 -14.6057 -3.197931 -6.394383 12.539 -23.10427 -0 4.892773 -0 3.896403 -20.01337 23.87998 -1.382742 -2.557223 5.121505 2.488019 10.02844 -7.824485 1.250105 21.46841 5.821745 2.393638 -25.02125 8.666587 4.708666 -20.26601 12.02882 85.55732 31.82278 -17.7069 -0 0 17.73529 -10.98128 8.794898 4.465276 6.900045 -21.1319 0.7336093 -94.48148 21.40219 23.24917 0 0 -8.365208 12.36985 17.83976 -3.34197
0.3552109 103.0428 3.476453 -0.2317221 0.2543525 0.1040982 4.614396 -24.31727 6.861556 -0 33.27353 -0 -6.827586 -12.66832 -2.89727 -5.985331 12.55704 -21.87514 -0 5.191429 -0 4.507456 -20.74625 23.23834 -1.093925 -2.103259 4.98005 2.742881 10.21124 -7.936318 1.138031 21.13822 6.125874 2.61784 -25.44034 8.62606 4.454519 -19.7529 12.16153 86.39878 32.2459 -18.35782 -0 0 15.94232 -11.08485 9.181684 4.946796 6.723637 -21.53429 0.3600307 -93.40053 20.48865 22.07049 0 0 -10.85411 12.48406 16.42781 -3.177895
0.5629738 102.4521 5.794139 -0.6424577 1.065349 0.06708084 5.326533 -28.30393 6.161927 -0 28.45873 -0 -6.8547 -10.34711 -2.586967 -5.709085 12.6417 -20.29597 -0 5.581637 -0 5.169558 -21.53375 22.35308 -0.943657 -1.867445 4.912571 2.842535 10.25791 -7.977873 1.042755 20.93691 6.325514 2.759379 -25.62511 8.581584 4.319542 -19.46293 12.20185 86.78499 32.44955 -18.69881 -0 0 15.07744 -11.30153 9.446613 5.331178 6.65851 -21.73827 0.2056807 -92.85097 20.14795 21.51396 0 0 -12.21641 12.28171 15.57052 -2.788155
0.7967593 101.6254 8.602108 -0.8451352 2.033336 0.1069984 5.877597 -31.76506 5.623695 -0 23.06879 -0 -6.537854 -8.189412 -2.289107 -5.653507 12.91879 -18.88497 -0 6.151438 -0 5.778753 -22.37332 21.48636 -0.8001639 -1.661983 4.879807 2.894112 10.32457 -7.995028 0.9617442 20.78859 6.440291 2.826683 -25.72779 8.504629 4.096467 -19.3109 12.24593 87.14052 32.45482 -18.8802 -0 0 14.46388 -11.65766 9.65789 5.732624 6.561557 -21.90642 0.07308041 -92.36765 19.73681 21.13809 0 0 -13.2143 12.11041 14.86814 -2.521332
1.039148 100.6233 11.99739 -0.9380739 2.912546 0.3137046 6.268285 -34.34814 5.021017 -0 17.69349 -0 -6.23853 -5.842566 -1.996726 -5.692962 13.52858 -17.54549 -0 7.317691 -0 5.737991 -23.20604 20.33073 -0.687078 -1.502651 4.889528 2.89438 10.37671 -7.978538 0.8830266 20.67579 6.514211 2.86594 -25.75389 8.405934 3.888275 -19.24442 12.27748 87.36402 32.40151 -18.91832 -0 0 14.11622 -12.08797 9.847949 6.148977 6.466901 -22.0119 -0.01089149 -92.02828 19.43505 20.99146 0 0 -13.87623 11.84761 14.29651 -2.182576
1.269266 99.5971 16.0172 -1.077088 3.64161 0.7599413 6.695902 -35.76405 4.634222 -0 13.68114 -0 -6.150186 -3.696635 -1.784694 -5.661627 14.39123 -16.46416 -0 9.288841 -0 4.650888 -23.69443 18.76944 -0.5889977 -1.365557 4.93633 2.855545 10.44038 -7.932607 0.8110702 20.59322 6.543727 2.870992 -25.72232 8.286054 3.654404 -19.26588 12.30859 87.52776 32.2844 -18.82754 -0 0 13.94429 -12.58681 10.013 6.59012 6.347181 -22.07601 -0.08578182 -91.75864 19.142 21.01086 0 0 -14.32416 11.56333 13.80723 -1.839805
1.468076 98.72247 20.68594 -1.391279 4.065345 1.450039 7.24627 -35.81906 4.417116 -0 11.77966 -0 -6.499732 -2.035899 -1.634085 -5.395549 15.34092 -15.52859 -0 12.43769 -0 2.495352 -23.22867 16.65473 -0.5123676 -1.249958 5.021561 2.778507 10.50803 -7.853635 0.7421355 20.53393 6.541058 2.852501 -25.63677 8.148008 3.415533 -19.36345 12.33569 87.61123 32.14687 -18.60675 -0 0 13.93956 -13.13992 10.16293 7.067229 6.205081 -22.09052 -0.1522774 -91.56006 18.88819 21.19864 0 0 -14.59666 11.23617 13.37409 -1.448429
1.635195 98.16833 25.99371 -1.944243 4.104918 2.268042 7.964432 -34.52721 4.319869 -0 12.12736 -0 -7.33071 -1.164638 -1.54413 -4.806933 15.96191 -14.56127 -0 17.29218 -0 -0.2653648 -21.17975 14.08688 -0.4567751 -1.150847 5.144368 2.665062 10.58276 -7.740202 0.6770063 20.49529 6.507148 2.809604 -25.50004 7.993565 3.165499 -19.53907 12.35929 87.62506 31.9988 -18.25282 -0 0 14.08365 -13.74167 10.29753 7.588526 6.032986 -22.05571 -0.222492 -91.41243 18.65756 21.54255 0 0 -14.73913 10.87847 12.97827 -1.011559
1.796811 98.0626 31.86126 -2.644485 3.756496 2.978714 8.762371 -31.96527 4.294176 -0 13.92941 -0 -8.423294 -1.178583 -1.56652 -3.963084 15.58678 -13.38371 -0 24.4643 -0 -2.916928 -17.34617 11.41511 -0.4264979 -1.067722 5.304079 2.516045 10.66008 -7.590139 0.6149032 20.47467 6.44628 2.744864 -25.3125 7.825444 2.911778 -19.79 12.37714 87.56007 31.85976 -17.75954 -0 0 14.37232 -14.38395 10.41885 8.161062 5.830261 -21.96606 -0.2998253 -91.31028 18.45806 22.03879 0 0 -14.77782 10.48803 12.60631 -0.5160708
1.990722 98.48222 38.08639 -3.220387 3.122321 3.33087 9.370639 -28.18682 4.357733 -0 15.80115 -0 -9.345972 -2.00265 -1.738589 -3.109462 13.49435 -12.04137 -0 33.97491 -0 -4.880027 -12.39523 9.20474 -0.4238129 -0.9996969 5.498087 2.333384 10.73683 -7.403047 0.5562991 20.4703 6.360801 2.659024 -25.07462 7.646746 2.657903 -20.11386 12.38778 87.41412 31.74053 -17.12389 -0 0 14.79708 -15.05824 10.52675 8.787826 5.596159 -21.81936 -0.388968 -91.2451 18.28925 22.67639 0 0 -14.73925 10.06959 12.24972 0.03993614
2.227564 99.42568 44.37642 -3.317169 2.223167 3.200271 9.392709 -23.23242 4.415839 -0 16.5485 -0 -9.780387 -3.378551 -1.973102 -2.574269 9.452595 -10.76581 -0 44.67323 -0 -5.909855 -7.717509 8.120232 -0.4509247 -0.9466761 5.722025 2.120342 10.80795 -7.18011 0.5015739 20.48053 6.254211 2.554138 -24.78749 7.46128 2.411006 -20.50401 12.38969 87.18299 31.65098 -16.34678 -0 0 15.34769 -15.75412 10.62133 9.467767 5.3333 -21.61455 -0.4916393 -91.21164 18.15407 23.43957 0 0 -14.64441 9.626955 11.90384 0.6566374
2.473133 100.7715 50.4653 -2.739293 0.8711703 2.659671 8.630703 -17.26309 4.274912 -0 15.90852 -0 -9.749655 -4.990517 -2.141771 -2.534068 3.967864 -9.747246 -0 54.4273 -0 -6.083315 -4.6097 8.580059 -0.508071 -0.9083359 5.969525 1.88182 10.86874 -6.924767 0.4515914 20.50384 6.129941 2.432591 -24.45348 7.273149 2.177857 -20.95061 12.38215 86.86684 31.59545 -15.43557 -0 0 16.00857 -16.45979 10.70237 10.1947 5.046292 -21.35408 -0.6084089 -91.20492 18.05258 24.30561 0 0 -14.5116 9.166368 11.56859 1.327749
2.680899 102.2646 56.20734 -1.615302 -0.9984495 1.947145 7.301651 -10.74682 3.855826 -0 14.25091 -0 -9.388276 -6.57481 -2.182951 -2.805755 -2.17627 -8.91487 -0 60.9603 -0 -5.720327 -3.507966 10.25531 -0.5937073 -0.8841737 6.232604 1.6243 10.91475 -6.642592 0.407337 20.53878 5.991808 2.297608 -24.07671 7.086561 1.965591 -21.44016 12.36529 86.46912 31.57407 -14.40457 -0 0 16.75952 -17.16231 10.76992 10.95753 4.742048 -21.04359 -0.7378303 -91.2213 17.98374 25.24639 0 0 -14.35449 8.695079 11.24782 2.042036
2.831006 103.5601 61.61511 -0.3458846 -3.018503 1.308426 5.956351 -4.484016 3.366402 -0 11.9666 -0 -8.636955 -7.837022 -2.133647 -2.832645 -8.318967 -7.932754 -0 62.55964 -0 -5.177692 -3.900719 12.3328 -0.7040178 -0.8731642 6.502101 1.355599 10.94282 -6.341228 0.3699391 20.58374 5.843655 2.152963 -23.66347 6.905516 1.780135 -21.95649 12.34026 85.99888 31.58219 -13.27605 -0 0 17.57552 -17.84803 10.82447 11.74061 4.42896 -20.69234 -0.8771601 -91.25742 17.94414 26.22947 0 0 -14.18338 8.221608 10.94858 2.783344
2.936605 104.3299 66.82507 0.5432141 -4.725734 0.7939886 5.194436 0.9037145 3.131727 -0 9.714657 -0 -7.569741 -8.794367 -2.143398 -1.987003 -13.92033 -6.524833 -0 58.5425 -0 -4.63732 -4.747314 14.36874 -0.8331032 -0.8736137 6.768317 1.084411 10.95167 -6.029989 0.3404809 20.63684 5.689488 2.00308 -23.22239 6.733593 1.625699 -22.48139 12.30907 85.47132 31.61156 -12.08068 -0 0 18.42707 -18.50326 10.86718 12.52474 4.116289 -20.31299 -1.022839 -91.30974 17.92857 27.21964 0 0 -14.00639 7.755013 10.67922 3.532399
3.04663 104.3971 71.98464 0.7171663 -5.804832 0.2863996 5.154732 5.431236 3.129267 -0 8.322377 -0 -6.673756 -10.16789 -2.172849 -0.220929 -18.68942 -4.862807 -0 49.56277 -0 -4.133106 -5.242189 16.26021 -0.9733809 -0.8830882 7.02181 0.8196262 10.94243 -5.719226 0.3198796 20.69587 5.533473 1.853009 -22.76444 6.573748 1.504175 -22.99565 12.27442 84.90818 31.65178 -10.85703 -0 0 19.28111 -19.11501 10.90003 13.2885 3.813312 -19.921 -1.171271 -91.37395 17.93066 28.18087 0 0 -13.83104 7.304291 10.44751 4.268839
3.233846 103.8236 77.21644 0.3092385 -5.909059 -0.2869345 5.394821 9.271874 3.043667 -0 7.995526 -0 -6.113619 -12.47839 -1.827006 1.770455 -22.66433 -3.391689 -0 37.89394 -0 -3.782054 -5.296089 17.65687 -1.116183 -0.8985458 7.254182 0.5696065 10.91893 -5.419561 0.3087976 20.75839 5.37978 1.708138 -22.30247 6.4282 1.414723 -23.48059 12.23939 84.33696 31.6918 -9.64984 -0 0 20.10292 -19.67167 10.92552 14.00971 3.528501 -19.53372 -1.319408 -91.44486 17.94343 29.07881 0 0 -13.66499 6.878095 10.25917 4.972833
3.548576 102.8323 82.6615 -0.2786415 -5.007453 -0.8875916 5.458095 12.33717 2.708451 -0 8.321665 -0 -5.512518 -15.08273 -0.873767 3.254073 -25.81747 -2.348952 -0 26.71207 -0 -3.67043 -5.199448 18.30286 -1.25214 -0.9164978 7.458817 0.3413465 10.8879 -5.141035 0.3077318 20.82168 5.231946 1.573473 -21.85032 6.298225 1.352939 -23.92032 12.2071 83.79037 31.72041 -8.507091 -0 0 20.85865 -20.16373 10.94653 14.66728 3.268364 -19.16924 -1.465755 -91.51624 17.95907 29.88393 0 0 -13.51722 6.484469 10.1172 5.626831
